<svg width="2704" height="1583" viewBox="0 0 2704 1583" fill="none" xmlns="http://www.w3.org/2000/svg">
<path d="M2257 517C1464.88 904.665 698.95 678.527 415 517V1006H2257V517Z" fill="#010101"/>
<path d="M424 519C707.95 680.527 1469.38 904.665 2261.5 517" stroke="#15BFFD" stroke-width="7"/>
<ellipse cx="1343" cy="715" rx="300" ry="162" fill="#010101"/>
<circle cx="1281" cy="776.242" r="66" fill="#15BFFD"/>
<path d="M1377.53 669.608C1378.14 668.699 1379.02 668.085 1380.19 667.762C1381.37 667.44 1382.44 667.506 1383.44 667.969C1384.43 668.432 1385.09 669.236 1385.42 670.385C1385.67 671.299 1385.65 672.134 1385.34 672.885C1385.04 673.633 1384.48 674.172 1383.66 674.482L1383.27 673.1C1384.25 672.54 1384.59 671.737 1384.28 670.694C1384.06 669.909 1383.59 669.395 1382.89 669.153C1382.19 668.912 1381.42 668.91 1380.59 669.139C1379.75 669.369 1379.1 669.774 1378.62 670.34C1378.15 670.906 1378.02 671.584 1378.25 672.375C1378.42 672.965 1378.75 673.377 1379.24 673.62C1379.72 673.859 1380.28 673.926 1380.9 673.813L1381.29 675.162C1380.32 675.371 1379.45 675.247 1378.68 674.796C1377.91 674.346 1377.39 673.643 1377.12 672.695C1376.79 671.539 1376.93 670.511 1377.53 669.608Z" fill="white"/>
<path d="M1379.58 677.585C1380.32 676.784 1381.29 676.313 1382.5 676.174C1383.71 676.038 1384.76 676.274 1385.68 676.882C1386.59 677.492 1387.11 678.389 1387.26 679.575C1387.41 680.762 1387.11 681.752 1386.37 682.552C1385.63 683.353 1384.66 683.824 1383.46 683.961C1382.25 684.098 1381.19 683.863 1380.28 683.253C1379.37 682.645 1378.85 681.746 1378.7 680.56C1378.55 679.377 1378.84 678.385 1379.58 677.585ZM1384.95 677.969C1384.29 677.624 1383.53 677.496 1382.67 677.597C1381.81 677.698 1381.1 677.988 1380.54 678.478C1379.99 678.963 1379.76 679.615 1379.86 680.43C1379.96 681.242 1380.33 681.822 1380.99 682.172C1381.65 682.522 1382.41 682.645 1383.27 682.544C1384.14 682.443 1384.85 682.148 1385.4 681.663C1385.96 681.172 1386.18 680.521 1386.08 679.713C1385.99 678.899 1385.61 678.314 1384.95 677.969Z" fill="white"/>
<path d="M1379.3 685.571L1387.53 685.792L1387.5 687.224L1380.51 687.038L1380.42 691.197L1379.17 691.162L1379.3 685.571Z" fill="white"/>
<path d="M1379.04 692.021L1387.19 693.238L1386.99 694.657L1380.07 693.619L1379.46 697.735L1378.23 697.55L1379.04 692.021Z" fill="white"/>
<path d="M1377.99 698.378L1385.93 700.615L1384.34 706.281L1383.14 705.944L1384.34 701.661L1382.27 701.076L1381.15 705.042L1380.02 704.722L1381.13 700.757L1378.81 700.092L1377.58 704.459L1376.38 704.123L1377.99 698.378Z" fill="white"/>
<path d="M1376.7 706.14C1377.75 705.828 1378.83 705.915 1379.94 706.411C1381.05 706.902 1381.84 707.64 1382.32 708.627C1382.79 709.613 1382.78 710.646 1382.3 711.737C1381.91 712.598 1381.35 713.223 1380.64 713.609C1379.92 713.994 1379.15 714.046 1378.32 713.775L1378.9 712.467C1380.01 712.661 1380.79 712.253 1381.23 711.263C1381.56 710.516 1381.53 709.829 1381.14 709.2C1380.75 708.567 1380.16 708.075 1379.37 707.727C1378.57 707.379 1377.81 707.265 1377.08 707.403C1376.35 707.539 1375.82 707.978 1375.49 708.726C1375.24 709.286 1375.23 709.808 1375.45 710.303C1375.68 710.793 1376.06 711.195 1376.62 711.506L1376.05 712.786C1375.17 712.329 1374.58 711.682 1374.27 710.85C1373.97 710.019 1374.01 709.152 1374.41 708.253C1374.89 707.152 1375.65 706.452 1376.7 706.14Z" fill="white"/>
<path d="M1378.91 715.495L1379.96 716.149L1376.47 721.768L1375.41 721.114L1376.78 718.904L1370.84 715.227L1371.59 714.014L1377.54 717.69L1378.91 715.495Z" fill="white"/>
<path d="M1367.03 720.573L1373.04 726.196L1372 727.297L1365 725.865L1364.99 725.883L1369.41 730.024L1368.48 731.017L1362.47 725.394L1363.5 724.295L1370.48 725.72L1370.51 725.693L1366.09 721.561L1367.03 720.573Z" fill="white"/>
<path d="M1361.27 726.406L1366.44 732.802L1362.02 736.322L1361.24 735.354L1364.53 732.727L1363.18 731.051L1360.28 733.36L1359.54 732.446L1362.44 730.137L1360.15 727.301L1361.27 726.406Z" fill="white"/>
<path d="M1360.32 736.003L1360.97 737.059L1355.29 740.501L1354.64 739.445L1356.87 738.092L1353.2 732.16L1354.43 731.417L1358.09 737.349L1360.32 736.003Z" fill="white"/>
<path d="M1348.22 734.879L1348.23 743.642L1346.8 744.18L1340.88 737.652L1342.32 737.105L1343.82 738.86L1346.89 737.699L1346.83 735.402L1348.22 734.879ZM1346.92 738.857L1344.58 739.74L1347 742.59L1347.01 742.586L1347.03 742.579L1346.92 738.857Z" fill="white"/>
<path d="M1340.23 737.76L1341.99 745.76L1338.16 746.575C1337.29 746.76 1336.58 746.71 1336.05 746.43C1335.52 746.149 1335.18 745.662 1335.03 744.979C1334.8 743.94 1335.09 743.171 1335.9 742.683L1335.9 742.661C1335.57 742.684 1335.26 742.592 1334.97 742.385C1334.67 742.178 1334.46 741.788 1334.33 741.223C1334.09 740.129 1333.79 739.458 1333.43 739.212L1334.94 738.89C1335.13 739.089 1335.29 739.466 1335.41 740.021C1335.58 740.792 1335.81 741.313 1336.11 741.585C1336.4 741.858 1336.86 741.931 1337.48 741.795L1339.55 741.354L1338.82 738.057L1340.23 737.76ZM1339.78 742.42L1337.48 742.912C1336.56 743.107 1336.19 743.629 1336.39 744.479C1336.49 744.948 1336.69 745.243 1336.97 745.361C1337.26 745.478 1337.62 745.493 1338.05 745.403L1340.34 744.919L1339.78 742.42Z" fill="white"/>
<path d="M1340.24 737.759L1341.99 745.754L1338.15 746.572C1337.28 746.758 1336.57 746.709 1336.04 746.429C1335.52 746.15 1335.17 745.663 1335.02 744.98C1334.79 743.942 1335.09 743.174 1335.9 742.685L1335.89 742.663C1335.57 742.687 1335.26 742.594 1334.96 742.388C1334.66 742.182 1334.46 741.792 1334.33 741.227C1334.09 740.134 1333.79 739.464 1333.43 739.218L1334.94 738.894C1335.13 739.093 1335.29 739.47 1335.41 740.024C1335.58 740.795 1335.81 741.315 1336.11 741.587C1336.4 741.859 1336.86 741.932 1337.48 741.795L1339.55 741.352L1338.83 738.057L1340.24 737.759ZM1339.78 742.418L1337.48 742.912C1336.56 743.108 1336.19 743.63 1336.38 744.479C1336.48 744.948 1336.68 745.243 1336.97 745.36C1337.26 745.477 1337.62 745.492 1338.05 745.401L1340.33 744.914L1339.78 742.418Z" fill="url(#paint0_radial_2005_111)"/>
<path d="M1333.97 746.108L1334.07 747.339L1327.42 747.852L1327.32 746.621L1329.93 746.419L1329.37 739.5L1330.81 739.389L1331.37 746.308L1333.97 746.108Z" fill="url(#paint1_radial_2005_111)"/>
<path d="M1309.16 738.072C1309.54 739.098 1309.51 740.17 1309.08 741.302C1308.65 742.431 1307.96 743.251 1307 743.772C1306.03 744.286 1304.99 744.336 1303.87 743.916C1302.98 743.575 1302.32 743.056 1301.89 742.363C1301.46 741.67 1301.36 740.905 1301.59 740.067L1302.94 740.574C1302.81 741.689 1303.26 742.439 1304.29 742.825C1305.05 743.117 1305.74 743.05 1306.36 742.637C1306.97 742.219 1307.43 741.606 1307.73 740.799C1308.04 739.992 1308.1 739.231 1307.93 738.511C1307.75 737.792 1307.27 737.289 1306.51 737.001C1305.93 736.785 1305.4 736.795 1304.92 737.044C1304.44 737.287 1304.06 737.698 1303.78 738.262L1302.46 737.766C1302.87 736.87 1303.48 736.249 1304.3 735.901C1305.12 735.559 1305.99 735.559 1306.92 735.91C1308.04 736.321 1308.79 737.046 1309.16 738.072Z" fill="url(#paint2_radial_2005_111)"/>
<path d="M1301.49 734.955C1301.7 736.023 1301.5 737.081 1300.9 738.134C1300.3 739.181 1299.48 739.888 1298.45 740.247C1297.42 740.607 1296.38 740.494 1295.34 739.905C1294.3 739.315 1293.66 738.486 1293.45 737.418C1293.24 736.349 1293.44 735.291 1294.04 734.246C1294.64 733.198 1295.45 732.492 1296.48 732.127C1297.51 731.762 1298.55 731.875 1299.6 732.468C1300.65 733.055 1301.28 733.887 1301.49 734.955ZM1298 739.023C1298.66 738.707 1299.21 738.172 1299.65 737.424C1300.08 736.676 1300.26 735.931 1300.19 735.194C1300.13 734.457 1299.74 733.888 1299.03 733.482C1298.31 733.078 1297.62 733.032 1296.95 733.354C1296.27 733.672 1295.72 734.207 1295.3 734.954C1294.86 735.702 1294.69 736.445 1294.75 737.182C1294.82 737.919 1295.21 738.487 1295.92 738.892C1296.63 739.298 1297.33 739.339 1298 739.023Z" fill="url(#paint3_radial_2005_111)"/>
<path d="M1295.16 729.971L1290.12 736.43L1288.98 735.552L1293.26 730.07L1289.94 727.524L1290.71 726.546L1295.16 729.971Z" fill="url(#paint4_radial_2005_111)"/>
<path d="M1290.09 725.938L1284.29 731.741L1283.27 730.729L1288.18 725.804L1285.21 722.875L1286.08 721.996L1290.09 725.938Z" fill="url(#paint5_radial_2005_111)"/>
<path d="M1285.54 721.356L1279.04 726.374L1275.39 721.722L1276.37 720.962L1279.13 724.481L1280.84 723.165L1278.28 719.908L1279.21 719.19L1281.76 722.447L1283.67 720.978L1280.85 717.396L1281.84 716.635L1285.54 721.356Z" fill="url(#paint6_radial_2005_111)"/>
<path d="M1279.99 715.698C1279.62 716.725 1278.91 717.533 1277.86 718.128C1276.8 718.723 1275.74 718.914 1274.66 718.704C1273.58 718.493 1272.75 717.869 1272.15 716.835C1271.69 716.01 1271.51 715.191 1271.62 714.389C1271.74 713.587 1272.15 712.932 1272.87 712.43L1273.58 713.677C1272.77 714.452 1272.64 715.314 1273.18 716.258C1273.58 716.971 1274.16 717.356 1274.9 717.422C1275.63 717.487 1276.39 717.309 1277.14 716.881C1277.9 716.452 1278.44 715.908 1278.76 715.248C1279.08 714.58 1279.04 713.892 1278.63 713.185C1278.32 712.651 1277.91 712.33 1277.38 712.212C1276.85 712.095 1276.29 712.168 1275.71 712.423L1275.01 711.205C1275.91 710.773 1276.78 710.68 1277.63 710.935C1278.49 711.191 1279.16 711.745 1279.65 712.603C1280.25 713.642 1280.36 714.67 1279.99 715.698Z" fill="url(#paint7_radial_2005_111)"/>
<path d="M1271.12 711.897L1269.96 712.353L1267.49 706.197L1268.64 705.741L1269.61 708.162L1276.11 705.602L1276.65 706.932L1270.15 709.491L1271.12 711.897Z" fill="url(#paint8_radial_2005_111)"/>
<path d="M1274.04 699.405L1265.94 700.865L1265.66 699.374L1270.95 694.624L1270.94 694.602L1264.97 695.677L1264.72 694.332L1272.83 692.872L1273.1 694.358L1267.83 699.099L1267.83 699.132L1273.79 698.06L1274.04 699.405Z" fill="url(#paint9_radial_2005_111)"/>
<path d="M1272.72 691.355L1264.49 691.678L1264.25 686.036L1265.5 685.989L1265.68 690.199L1267.83 690.114L1267.68 686.417L1268.85 686.372L1269.01 690.068L1272.66 689.926L1272.72 691.355Z" fill="url(#paint10_radial_2005_111)"/>
<path d="M1265.51 684.863L1264.27 684.752L1264.84 678.152L1266.09 678.261L1265.86 680.851L1272.83 681.456L1272.71 682.883L1265.74 682.279L1265.51 684.863Z" fill="url(#paint11_radial_2005_111)"/>
<path d="M1273.55 675.875L1266.5 670.59L1266.92 669.126L1275.72 668.37L1275.29 669.841L1272.98 669.977L1272.08 673.113L1273.96 674.451L1273.55 675.875ZM1271.13 672.439L1271.82 670.041L1268.08 670.244L1268.07 670.257L1268.07 670.276L1271.13 672.439Z" fill="url(#paint12_radial_2005_111)"/>
<path d="M1276 667.801L1268.48 664.414L1270.09 660.859C1270.45 660.054 1270.91 659.523 1271.45 659.264C1271.99 659.006 1272.59 659.024 1273.23 659.315C1274.2 659.756 1274.66 660.448 1274.58 661.389L1274.6 661.399C1274.77 661.127 1275.03 660.931 1275.37 660.819C1275.72 660.707 1276.16 660.77 1276.69 661.009C1277.71 661.473 1278.43 661.631 1278.85 661.493L1278.22 662.889C1277.95 662.923 1277.55 662.822 1277.02 662.587C1276.3 662.259 1275.74 662.135 1275.35 662.201C1274.95 662.273 1274.62 662.596 1274.36 663.172L1273.5 665.088L1276.59 666.482L1276 667.801ZM1272.49 664.652L1273.46 662.519C1273.84 661.672 1273.64 661.065 1272.84 660.707C1272.4 660.505 1272.04 660.486 1271.78 660.647C1271.51 660.807 1271.29 661.084 1271.11 661.485L1270.16 663.597L1272.49 664.652Z" fill="white"/>
<path d="M1272.96 657.813L1271.9 657.158L1275.41 651.541L1276.47 652.195L1275.09 654.4L1281.03 658.089L1280.27 659.304L1274.33 655.615L1272.96 657.813Z" fill="white"/>
<path d="M1294.16 642.802C1293.1 642.49 1292.25 641.825 1291.59 640.807C1290.93 639.789 1290.67 638.742 1290.82 637.664C1290.97 636.588 1291.54 635.73 1292.55 635.083C1293.35 634.578 1294.16 634.363 1294.97 634.431C1295.79 634.499 1296.46 634.878 1297.01 635.564L1295.81 636.336C1294.97 635.571 1294.11 635.482 1293.19 636.067C1292.5 636.507 1292.14 637.095 1292.13 637.834C1292.11 638.574 1292.33 639.302 1292.8 640.033C1293.27 640.759 1293.85 641.266 1294.54 641.553C1295.23 641.84 1295.92 641.76 1296.61 641.32C1297.12 640.99 1297.43 640.561 1297.51 640.026C1297.59 639.49 1297.49 638.945 1297.2 638.388L1298.38 637.632C1298.87 638.497 1299.01 639.353 1298.81 640.217C1298.6 641.08 1298.08 641.773 1297.25 642.304C1296.24 642.949 1295.21 643.116 1294.16 642.802Z" fill="white"/>
<path d="M1301.26 638.522C1300.27 638.052 1299.52 637.261 1299.03 636.154C1298.53 635.047 1298.45 633.974 1298.76 632.935C1299.08 631.891 1299.79 631.136 1300.88 630.655C1301.98 630.174 1303.02 630.171 1304.01 630.64C1305 631.11 1305.74 631.896 1306.24 633.003C1306.73 634.11 1306.82 635.183 1306.5 636.227C1306.19 637.271 1305.48 638.031 1304.39 638.512C1303.29 638.993 1302.25 638.991 1301.26 638.522ZM1300.02 633.308C1299.89 634.031 1299.99 634.79 1300.35 635.581C1300.7 636.372 1301.2 636.962 1301.83 637.351C1302.46 637.739 1303.16 637.769 1303.91 637.441C1304.65 637.114 1305.1 636.586 1305.24 635.861C1305.38 635.136 1305.27 634.374 1304.92 633.586C1304.57 632.795 1304.08 632.205 1303.44 631.823C1302.8 631.437 1302.11 631.405 1301.36 631.735C1300.61 632.057 1300.16 632.585 1300.02 633.308Z" fill="white"/>
<path d="M1309.05 636.454L1306.78 628.58L1308.17 628.192L1310.09 634.875L1314.11 633.749L1314.46 634.938L1309.05 636.454Z" fill="white"/>
<path d="M1315.34 634.784L1314.05 626.698L1315.47 626.481L1316.57 633.347L1320.7 632.715L1320.89 633.936L1315.34 634.784Z" fill="white"/>
<path d="M1321.75 633.875L1321.5 625.7L1327.42 625.56L1327.46 626.797L1322.98 626.902L1323.05 629.041L1327.19 628.944L1327.23 630.112L1323.08 630.209L1323.15 632.602L1327.72 632.495L1327.75 633.732L1321.75 633.875Z" fill="white"/>
<path d="M1329.62 632.811C1329 631.904 1328.77 630.855 1328.9 629.655C1329.04 628.458 1329.51 627.493 1330.32 626.755C1331.12 626.023 1332.12 625.728 1333.32 625.869C1334.26 625.989 1335.03 626.335 1335.61 626.904C1336.2 627.474 1336.48 628.197 1336.47 629.062L1335.04 628.89C1334.88 627.782 1334.27 627.16 1333.18 627.028C1332.36 626.932 1331.71 627.156 1331.22 627.71C1330.73 628.264 1330.44 628.969 1330.34 629.825C1330.24 630.68 1330.36 631.439 1330.71 632.091C1331.06 632.744 1331.65 633.122 1332.46 633.219C1333.07 633.291 1333.58 633.154 1333.98 632.798C1334.39 632.443 1334.66 631.956 1334.79 631.345L1336.19 631.511C1336.02 632.481 1335.57 633.232 1334.86 633.761C1334.15 634.29 1333.31 634.495 1332.32 634.378C1331.13 634.236 1330.23 633.713 1329.62 632.811Z" fill="white"/>
<path d="M1337.95 627.971L1338.27 626.777L1344.72 628.48L1344.41 629.674L1341.87 629.004L1340.12 635.718L1338.72 635.348L1340.48 628.635L1337.95 627.971Z" fill="white"/>
<path d="M1346.36 637.744L1349.96 630.407L1351.33 631.076L1352.06 638.137L1352.08 638.147L1354.73 632.739L1355.96 633.342L1352.36 640.679L1350.99 640.008L1350.27 632.964L1350.24 632.951L1347.6 638.346L1346.36 637.744Z" fill="white"/>
<path d="M1353.69 641.488L1358.28 634.715L1363 637.894L1362.31 638.917L1358.79 636.546L1357.58 638.318L1360.67 640.4L1360.02 641.368L1356.93 639.286L1354.89 642.294L1353.69 641.488Z" fill="white"/>
<path d="M1363.19 639.57L1364.01 638.641L1369.03 643.022L1368.22 643.951L1366.24 642.229L1361.65 647.442L1360.56 646.494L1365.16 641.282L1363.19 639.57Z" fill="white"/>
<g opacity="0.5" filter="url(#filter0_f_2005_111)">
<rect x="521" y="521" width="342" height="509" rx="171" fill="#15BFFD"/>
</g>
<path d="M1324.17 728.75C1323.48 729.206 1323.29 730.137 1323.75 730.828C1324.2 731.52 1325.13 731.71 1325.83 731.254L1324.17 728.75ZM1423.42 666.301C1423.59 665.489 1423.07 664.697 1422.26 664.53L1409.03 661.823C1408.22 661.657 1407.43 662.18 1407.26 662.991C1407.09 663.803 1407.62 664.596 1408.43 664.762L1420.19 667.169L1417.78 678.925C1417.61 679.736 1418.14 680.529 1418.95 680.695C1419.76 680.861 1420.55 680.338 1420.72 679.527L1423.42 666.301ZM1325.83 731.254L1422.78 667.252L1421.13 664.748L1324.17 728.75L1325.83 731.254Z" fill="#15BFFD"/>
<g opacity="0.5" filter="url(#filter1_f_2005_111)">
<rect x="1841" y="553" width="342" height="509" rx="171" fill="#15BFFD"/>
</g>
<defs>
<filter id="filter0_f_2005_111" x="0" y="0" width="1384" height="1551" filterUnits="userSpaceOnUse" color-interpolation-filters="sRGB">
<feFlood flood-opacity="0" result="BackgroundImageFix"/>
<feBlend mode="normal" in="SourceGraphic" in2="BackgroundImageFix" result="shape"/>
<feGaussianBlur stdDeviation="260.5" result="effect1_foregroundBlur_2005_111"/>
</filter>
<filter id="filter1_f_2005_111" x="1320" y="32" width="1384" height="1551" filterUnits="userSpaceOnUse" color-interpolation-filters="sRGB">
<feFlood flood-opacity="0" result="BackgroundImageFix"/>
<feBlend mode="normal" in="SourceGraphic" in2="BackgroundImageFix" result="shape"/>
<feGaussianBlur stdDeviation="260.5" result="effect1_foregroundBlur_2005_111"/>
</filter>
<radialGradient id="paint0_radial_2005_111" cx="0" cy="0" r="1" gradientUnits="userSpaceOnUse" gradientTransform="translate(1340.03 741.535) rotate(69.8178) scale(12.3135 13.4079)">
<stop stop-color="#051856"/>
<stop offset="1"/>
</radialGradient>
<radialGradient id="paint1_radial_2005_111" cx="0" cy="0" r="1" gradientUnits="userSpaceOnUse" gradientTransform="translate(1331.51 743.381) rotate(69.82) scale(12.201 12.21)">
<stop stop-color="#051856"/>
<stop offset="1"/>
</radialGradient>
<radialGradient id="paint2_radial_2005_111" cx="0" cy="0" r="1" gradientUnits="userSpaceOnUse" gradientTransform="translate(1307.71 739.01) rotate(69.8208) scale(11.3801 15.1288)">
<stop stop-color="#051856"/>
<stop offset="1"/>
</radialGradient>
<radialGradient id="paint3_radial_2005_111" cx="0" cy="0" r="1" gradientUnits="userSpaceOnUse" gradientTransform="translate(1299.81 735.238) rotate(69.8209) scale(11.3049 15.3333)">
<stop stop-color="#051856"/>
<stop offset="1"/>
</radialGradient>
<radialGradient id="paint4_radial_2005_111" cx="0" cy="0" r="1" gradientUnits="userSpaceOnUse" gradientTransform="translate(1293.6 730.229) rotate(69.8202) scale(12.3876 13.9662)">
<stop stop-color="#051856"/>
<stop offset="1"/>
</radialGradient>
<radialGradient id="paint5_radial_2005_111" cx="0" cy="0" r="1" gradientUnits="userSpaceOnUse" gradientTransform="translate(1288.25 725.659) rotate(69.8206) scale(11.6521 14.562)">
<stop stop-color="#051856"/>
<stop offset="1"/>
</radialGradient>
<radialGradient id="paint6_radial_2005_111" cx="0" cy="0" r="1" gradientUnits="userSpaceOnUse" gradientTransform="translate(1283.12 720.435) rotate(69.8216) scale(11.1789 17.4504)">
<stop stop-color="#051856"/>
<stop offset="1"/>
</radialGradient>
<radialGradient id="paint7_radial_2005_111" cx="0" cy="0" r="1" gradientUnits="userSpaceOnUse" gradientTransform="translate(1278.35 713.912) rotate(69.8214) scale(10.319 15.6002)">
<stop stop-color="#051856"/>
<stop offset="1"/>
</radialGradient>
<radialGradient id="paint8_radial_2005_111" cx="0" cy="0" r="1" gradientUnits="userSpaceOnUse" gradientTransform="translate(1274.86 706.962) rotate(69.8219) scale(9.07437 15.0797)">
<stop stop-color="#051856"/>
<stop offset="1"/>
</radialGradient>
<radialGradient id="paint9_radial_2005_111" cx="0" cy="0" r="1" gradientUnits="userSpaceOnUse" gradientTransform="translate(1271.94 695.849) rotate(69.8215) scale(10.7921 16.6766)">
<stop stop-color="#051856"/>
<stop offset="1"/>
</radialGradient>
<radialGradient id="paint10_radial_2005_111" cx="0" cy="0" r="1" gradientUnits="userSpaceOnUse" gradientTransform="translate(1270.17 687.991) rotate(69.821) scale(10.7171 14.9598)">
<stop stop-color="#051856"/>
<stop offset="1"/>
</radialGradient>
<radialGradient id="paint11_radial_2005_111" cx="0" cy="0" r="1" gradientUnits="userSpaceOnUse" gradientTransform="translate(1270.28 679.885) rotate(69.8221) scale(9.68445 16.5779)">
<stop stop-color="#051856"/>
<stop offset="1"/>
</radialGradient>
<radialGradient id="paint12_radial_2005_111" cx="0" cy="0" r="1" gradientUnits="userSpaceOnUse" gradientTransform="translate(1274.59 670.824) rotate(69.8212) scale(11.6977 17.023)">
<stop stop-color="#051856"/>
<stop offset="1"/>
</radialGradient>
</defs>
</svg>
