<svg width="600" height="324" viewBox="0 0 600 324" fill="none" xmlns="http://www.w3.org/2000/svg">
<ellipse cx="300" cy="162" rx="300" ry="162" fill="#010101"/>
<circle cx="249" cy="205.242" r="66" fill="#15BFFD"/>
<path d="M296.174 157.99C295.482 158.447 295.292 159.377 295.748 160.069C296.205 160.76 297.135 160.95 297.826 160.494L296.174 157.99ZM395.425 95.5411C395.591 94.7295 395.068 93.9369 394.256 93.7707L381.031 91.063C380.219 90.8968 379.426 91.42 379.26 92.2316C379.094 93.0432 379.617 93.8359 380.429 94.002L392.185 96.4089L389.778 108.165C389.612 108.977 390.135 109.769 390.947 109.935C391.758 110.102 392.551 109.578 392.717 108.767L395.425 95.5411ZM297.826 160.494L394.782 96.4921L393.129 93.9884L296.174 157.99L297.826 160.494Z" fill="#15BFFD"/>
<path d="M345.535 98.6084C346.139 97.6987 347.023 97.0845 348.194 96.7621C349.366 96.4396 350.442 96.5064 351.436 96.969C352.429 97.4316 353.088 98.2358 353.418 99.385C353.674 100.299 353.649 101.134 353.341 101.885C353.039 102.633 352.479 103.172 351.665 103.482L351.272 102.1C352.245 101.54 352.586 100.737 352.283 99.6945C352.057 98.9089 351.594 98.3953 350.891 98.1535C350.189 97.9117 349.417 97.9099 348.585 98.1394C347.753 98.3689 347.096 98.7737 346.622 99.3399C346.147 99.906 346.024 100.584 346.251 101.375C346.422 101.965 346.749 102.377 347.236 102.62C347.721 102.859 348.277 102.926 348.901 102.813L349.288 104.162C348.319 104.371 347.45 104.247 346.683 103.796C345.915 103.346 345.393 102.643 345.119 101.695C344.792 100.539 344.933 99.511 345.535 98.6084Z" fill="white"/>
<path d="M347.583 106.585C348.322 105.784 349.292 105.313 350.503 105.174C351.708 105.038 352.764 105.274 353.677 105.882C354.585 106.492 355.115 107.389 355.26 108.575C355.406 109.762 355.111 110.752 354.372 111.552C353.634 112.353 352.663 112.824 351.458 112.961C350.253 113.098 349.192 112.863 348.284 112.253C347.371 111.645 346.846 110.746 346.701 109.56C346.545 108.377 346.845 107.385 347.583 106.585ZM352.951 106.969C352.293 106.624 351.533 106.496 350.671 106.597C349.809 106.698 349.098 106.988 348.543 107.478C347.987 107.963 347.76 108.615 347.856 109.43C347.957 110.242 348.334 110.822 348.994 111.172C349.655 111.522 350.413 111.645 351.275 111.544C352.137 111.443 352.845 111.148 353.402 110.663C353.957 110.172 354.184 109.521 354.085 108.713C353.989 107.899 353.61 107.314 352.951 106.969Z" fill="white"/>
<path d="M347.297 114.571L355.535 114.792L355.502 116.224L348.51 116.038L348.419 120.197L347.173 120.162L347.297 114.571Z" fill="white"/>
<path d="M347.038 121.021L355.193 122.238L354.986 123.657L348.065 122.619L347.462 126.735L346.231 126.55L347.038 121.021Z" fill="white"/>
<path d="M345.995 127.378L353.926 129.615L352.336 135.281L351.138 134.944L352.344 130.661L350.265 130.076L349.153 134.042L348.019 133.722L349.132 129.757L346.808 129.092L345.58 133.459L344.382 133.123L345.995 127.378Z" fill="white"/>
<path d="M344.699 135.14C345.746 134.828 346.829 134.915 347.94 135.411C349.049 135.902 349.841 136.64 350.316 137.627C350.79 138.613 350.78 139.646 350.301 140.737C349.912 141.598 349.354 142.223 348.638 142.609C347.922 142.994 347.147 143.046 346.317 142.775L346.898 141.467C348.008 141.661 348.786 141.253 349.227 140.263C349.558 139.516 349.527 138.829 349.143 138.2C348.752 137.567 348.162 137.075 347.368 136.727C346.574 136.379 345.808 136.265 345.083 136.403C344.351 136.539 343.824 136.978 343.492 137.726C343.243 138.286 343.231 138.808 343.455 139.303C343.677 139.793 344.064 140.195 344.622 140.506L344.055 141.786C343.174 141.329 342.58 140.682 342.273 139.85C341.966 139.019 342.015 138.152 342.413 137.253C342.888 136.152 343.652 135.452 344.699 135.14Z" fill="white"/>
<path d="M346.906 144.495L347.964 145.149L344.467 150.768L343.408 150.114L344.783 147.904L338.838 144.227L339.594 143.014L345.538 146.69L346.906 144.495Z" fill="white"/>
<path d="M335.028 149.573L341.041 155.196L340 156.297L333.003 154.865L332.987 154.883L337.415 159.024L336.479 160.017L330.465 154.394L331.502 153.295L338.484 154.72L338.509 154.693L334.09 150.561L335.028 149.573Z" fill="white"/>
<path d="M329.274 155.406L334.438 161.802L330.018 165.322L329.235 164.354L332.532 161.727L331.179 160.051L328.284 162.36L327.544 161.446L330.439 159.137L328.145 156.301L329.274 155.406Z" fill="white"/>
<path d="M328.317 165.003L328.969 166.059L323.293 169.501L322.641 168.445L324.868 167.092L321.205 161.16L322.43 160.417L326.094 166.349L328.317 165.003Z" fill="white"/>
<path d="M316.215 163.879L316.23 172.642L314.799 173.18L308.878 166.652L310.317 166.105L311.822 167.86L314.891 166.699L314.826 164.402L316.215 163.879ZM314.921 167.857L312.578 168.74L315.001 171.59L315.011 171.586L315.032 171.579L314.921 167.857Z" fill="white"/>
<path d="M308.229 166.76L309.989 174.76L306.156 175.575C305.285 175.76 304.584 175.71 304.054 175.43C303.525 175.149 303.182 174.662 303.029 173.979C302.798 172.94 303.092 172.171 303.899 171.683L303.896 171.661C303.572 171.684 303.264 171.592 302.966 171.385C302.668 171.178 302.46 170.788 302.333 170.223C302.093 169.129 301.793 168.458 301.428 168.212L302.938 167.89C303.128 168.089 303.29 168.466 303.413 169.021C303.581 169.792 303.814 170.313 304.107 170.585C304.4 170.858 304.859 170.931 305.48 170.795L307.547 170.354L306.821 167.057L308.229 166.76ZM307.782 171.42L305.477 171.912C304.563 172.107 304.195 172.629 304.386 173.479C304.488 173.948 304.685 174.243 304.973 174.361C305.262 174.478 305.623 174.493 306.051 174.403L308.336 173.919L307.782 171.42Z" fill="white"/>
<path d="M308.24 166.759L309.986 174.754L306.149 175.572C305.276 175.758 304.574 175.709 304.045 175.429C303.515 175.15 303.173 174.663 303.021 173.98C302.791 172.942 303.087 172.174 303.896 171.685L303.893 171.663C303.569 171.687 303.26 171.594 302.962 171.388C302.664 171.182 302.457 170.792 302.331 170.227C302.093 169.134 301.794 168.464 301.429 168.218L302.941 167.894C303.131 168.093 303.293 168.47 303.415 169.024C303.581 169.795 303.813 170.315 304.106 170.587C304.399 170.859 304.858 170.932 305.48 170.795L307.55 170.352L306.83 167.057L308.24 166.759ZM307.784 171.418L305.475 171.912C304.56 172.108 304.19 172.63 304.38 173.479C304.482 173.948 304.678 174.243 304.967 174.36C305.255 174.477 305.617 174.492 306.046 174.401L308.333 173.914L307.784 171.418Z" fill="url(#paint0_radial_2001_45)"/>
<path d="M301.97 175.108L302.066 176.339L295.416 176.852L295.32 175.621L297.928 175.419L297.373 168.5L298.811 168.389L299.366 175.308L301.97 175.108Z" fill="url(#paint1_radial_2001_45)"/>
<path d="M277.163 167.072C277.54 168.098 277.513 169.17 277.081 170.302C276.655 171.431 275.957 172.251 274.996 172.772C274.034 173.286 272.994 173.336 271.869 172.916C270.978 172.575 270.32 172.056 269.89 171.363C269.459 170.67 269.359 169.905 269.589 169.067L270.939 169.574C270.811 170.689 271.262 171.439 272.286 171.825C273.055 172.117 273.743 172.05 274.357 171.637C274.969 171.219 275.428 170.606 275.734 169.799C276.039 168.992 276.104 168.231 275.927 167.511C275.745 166.792 275.273 166.289 274.507 166.001C273.931 165.785 273.402 165.795 272.921 166.044C272.438 166.287 272.056 166.698 271.779 167.262L270.462 166.766C270.87 165.87 271.483 165.249 272.302 164.901C273.124 164.559 273.995 164.559 274.925 164.91C276.04 165.321 276.786 166.046 277.163 167.072Z" fill="url(#paint2_radial_2001_45)"/>
<path d="M269.487 163.955C269.698 165.023 269.502 166.081 268.901 167.134C268.298 168.181 267.482 168.888 266.451 169.247C265.42 169.607 264.378 169.494 263.338 168.905C262.297 168.315 261.664 167.486 261.453 166.418C261.242 165.349 261.438 164.291 262.035 163.246C262.638 162.198 263.454 161.492 264.484 161.127C265.513 160.762 266.554 160.875 267.602 161.468C268.648 162.055 269.275 162.887 269.487 163.955ZM265.995 168.023C266.662 167.707 267.214 167.172 267.646 166.424C268.079 165.676 268.261 164.931 268.195 164.194C268.128 163.457 267.738 162.888 267.028 162.482C266.312 162.078 265.617 162.032 264.946 162.354C264.274 162.672 263.722 163.207 263.295 163.954C262.863 164.702 262.686 165.445 262.752 166.182C262.818 166.919 263.208 167.487 263.924 167.892C264.635 168.298 265.328 168.339 265.995 168.023Z" fill="url(#paint3_radial_2001_45)"/>
<path d="M263.163 158.971L258.125 165.43L256.984 164.552L261.259 159.07L257.944 156.524L258.707 155.546L263.163 158.971Z" fill="url(#paint4_radial_2001_45)"/>
<path d="M258.087 154.938L252.293 160.741L251.266 159.729L256.184 154.804L253.208 151.875L254.083 150.996L258.087 154.938Z" fill="url(#paint5_radial_2001_45)"/>
<path d="M253.537 150.356L247.039 155.374L243.388 150.722L244.372 149.962L247.132 153.481L248.835 152.165L246.282 148.908L247.211 148.19L249.764 151.447L251.668 149.978L248.855 146.396L249.838 145.635L253.537 150.356Z" fill="url(#paint6_radial_2001_45)"/>
<path d="M247.991 144.698C247.621 145.725 246.912 146.533 245.856 147.128C244.8 147.723 243.737 147.914 242.66 147.704C241.582 147.493 240.751 146.869 240.155 145.835C239.688 145.01 239.509 144.191 239.624 143.389C239.738 142.587 240.153 141.932 240.869 141.43L241.584 142.677C240.77 143.452 240.636 144.314 241.176 145.258C241.584 145.971 242.159 146.356 242.896 146.422C243.633 146.487 244.386 146.309 245.141 145.881C245.895 145.452 246.438 144.908 246.756 144.248C247.078 143.58 247.036 142.892 246.63 142.185C246.322 141.651 245.906 141.33 245.378 141.212C244.849 141.095 244.292 141.168 243.713 141.423L243.014 140.205C243.907 139.773 244.779 139.68 245.633 139.935C246.487 140.191 247.159 140.745 247.649 141.603C248.247 142.642 248.362 143.67 247.991 144.698Z" fill="url(#paint7_radial_2001_45)"/>
<path d="M239.115 140.897L237.962 141.353L235.489 135.197L236.643 134.741L237.614 137.162L244.11 134.602L244.645 135.932L238.149 138.491L239.115 140.897Z" fill="url(#paint8_radial_2001_45)"/>
<path d="M242.042 128.405L233.938 129.865L233.659 128.374L238.946 123.624L238.944 123.602L232.972 124.677L232.723 123.332L240.828 121.872L241.105 123.358L235.826 128.099L235.832 128.132L241.793 127.06L242.042 128.405Z" fill="url(#paint9_radial_2001_45)"/>
<path d="M240.724 120.355L232.489 120.678L232.251 115.036L233.496 114.989L233.676 119.199L235.831 119.114L235.677 115.417L236.852 115.372L237.007 119.068L240.661 118.926L240.724 120.355Z" fill="url(#paint10_radial_2001_45)"/>
<path d="M233.513 113.863L232.274 113.752L232.842 107.152L234.086 107.261L233.863 109.851L240.832 110.456L240.707 111.883L233.738 111.279L233.513 113.863Z" fill="url(#paint11_radial_2001_45)"/>
<path d="M241.553 104.875L234.502 99.5905L234.922 98.1264L243.717 97.37L243.293 98.841L240.981 98.9765L240.076 102.113L241.959 103.451L241.553 104.875ZM239.127 101.439L239.818 99.041L236.076 99.2444L236.074 99.2566L236.07 99.2757L239.127 101.439Z" fill="url(#paint12_radial_2001_45)"/>
<path d="M243.997 96.8005L236.483 93.4137L238.086 89.8593C238.449 89.0541 238.907 88.5229 239.448 88.2643C239.989 88.0057 240.586 88.0239 241.231 88.3154C242.205 88.7561 242.658 89.4479 242.579 90.3894L242.6 90.3993C242.775 90.1273 243.029 89.931 243.373 89.8189C243.717 89.7068 244.155 89.7703 244.687 90.0094C245.711 90.473 246.435 90.6313 246.851 90.4933L246.221 91.8888C245.948 91.9232 245.549 91.8225 245.024 91.5867C244.301 91.259 243.742 91.1346 243.346 91.2014C242.952 91.2732 242.621 91.5957 242.361 92.1721L241.496 94.0882L244.591 95.4819L243.997 96.8005ZM240.495 93.6517L241.46 91.519C241.842 90.6718 241.636 90.0655 240.839 89.7069C240.396 89.5053 240.045 89.4863 239.777 89.6466C239.509 89.807 239.29 90.0835 239.111 90.4852L238.155 92.5969L240.495 93.6517Z" fill="white"/>
<path d="M240.956 86.8127L239.897 86.1584L243.407 80.541L244.465 81.1953L243.089 83.3998L249.032 87.0887L248.272 88.3041L242.329 84.6152L240.956 86.8127Z" fill="white"/>
<path d="M262.155 71.802C261.1 71.4895 260.248 70.825 259.587 69.807C258.926 68.7889 258.668 67.742 258.819 66.6642C258.965 65.5883 259.542 64.7298 260.547 64.0834C261.353 63.5783 262.161 63.3633 262.974 63.4313C263.788 63.4994 264.464 63.8781 265.015 64.5639L263.805 65.3362C262.974 64.571 262.107 64.4818 261.19 65.0673C260.5 65.5074 260.145 66.0946 260.125 66.8341C260.106 67.5736 260.328 68.302 260.802 69.0328C261.274 69.7585 261.852 70.2658 262.541 70.5527C263.231 70.8396 263.92 70.7605 264.61 70.3204C265.124 69.9901 265.427 69.5613 265.51 69.0257C265.593 68.4901 265.491 67.9452 265.198 67.3878L266.379 66.6318C266.867 67.4969 267.007 68.3534 266.806 69.2165C266.605 70.0796 266.084 70.7728 265.253 71.3044C264.235 71.9493 263.205 72.1163 262.155 71.802Z" fill="white"/>
<path d="M269.256 67.5219C268.266 67.0524 267.525 66.2608 267.029 65.154C266.533 64.0473 266.447 62.9736 266.764 61.9349C267.08 60.8911 267.788 60.1363 268.884 59.6552C269.979 59.1741 271.023 59.1708 272.013 59.6403C273.003 60.1098 273.743 60.8962 274.238 62.003C274.734 63.1097 274.821 64.1834 274.505 65.2272C274.189 66.2711 273.483 67.031 272.388 67.5121C271.292 67.9932 270.247 67.9913 269.256 67.5219ZM268.023 62.308C267.887 63.0314 267.991 63.7904 268.347 64.5811C268.703 65.3718 269.195 65.9624 269.829 66.3508C270.462 66.7393 271.156 66.7688 271.905 66.4413C272.654 66.1138 273.102 65.5864 273.243 64.8612C273.384 64.1359 273.273 63.3737 272.924 62.5862C272.568 61.7955 272.076 61.2049 271.439 60.8235C270.801 60.4368 270.112 60.4054 269.358 60.7348C268.607 61.0572 268.159 61.5846 268.023 62.308Z" fill="white"/>
<path d="M277.047 65.454L274.78 57.5798L276.165 57.1918L278.092 63.8747L282.112 62.7486L282.457 63.9381L277.047 65.454Z" fill="white"/>
<path d="M283.336 63.7838L282.048 55.6978L283.473 55.4814L284.569 62.3467L288.7 61.7151L288.893 62.9359L283.336 63.7838Z" fill="white"/>
<path d="M289.746 62.8749L289.504 54.7001L295.424 54.5595L295.46 55.7966L290.98 55.9018L291.045 58.0412L295.195 57.9442L295.229 59.1123L291.079 59.2093L291.15 61.6024L295.716 61.4951L295.752 62.7322L289.746 62.8749Z" fill="white"/>
<path d="M297.616 61.8109C297.002 60.9039 296.766 59.8546 296.902 58.6545C297.044 57.4578 297.512 56.493 298.32 55.7548C299.124 55.0235 300.124 54.7278 301.315 54.8694C302.258 54.9895 303.028 55.3349 303.612 55.9042C304.195 56.4735 304.479 57.197 304.466 58.0625L303.036 57.8904C302.884 56.7821 302.27 56.16 301.182 56.0279C300.364 55.9324 299.711 56.1557 299.221 56.71C298.73 57.2643 298.436 57.9692 298.337 58.8247C298.238 59.6802 298.36 60.4387 298.711 61.0915C299.063 61.7442 299.646 62.1218 300.458 62.2193C301.068 62.2906 301.578 62.1537 301.984 61.7983C302.39 61.4429 302.66 60.9562 302.791 60.3452L304.189 60.511C304.015 61.4806 303.575 62.2323 302.865 62.7609C302.155 63.2896 301.308 63.4952 300.325 63.3778C299.134 63.2362 298.229 62.7128 297.616 61.8109Z" fill="white"/>
<path d="M305.954 56.9714L306.267 55.7774L312.72 57.4799L312.408 58.6739L309.872 58.0042L308.116 64.7177L306.718 64.3481L308.475 57.6345L305.954 56.9714Z" fill="white"/>
<path d="M314.359 66.7441L317.96 59.4073L319.333 60.0764L320.057 67.1375L320.078 67.1473L322.731 61.7387L323.964 62.3422L320.363 69.679L318.995 69.008L318.272 61.9642L318.244 61.9511L315.597 67.3457L314.359 66.7441Z" fill="white"/>
<path d="M321.687 70.4875L326.281 63.7152L330.999 66.8941L330.307 67.9168L326.787 65.5464L325.582 67.3178L328.675 69.3997L328.021 70.3679L324.929 68.2859L322.889 71.2942L321.687 70.4875Z" fill="white"/>
<path d="M331.189 68.5699L332.009 67.6411L337.035 72.0225L336.215 72.9513L334.243 71.2292L329.647 76.4417L328.562 75.4942L333.158 70.2817L331.189 68.5699Z" fill="white"/>
<defs>
<radialGradient id="paint0_radial_2001_45" cx="0" cy="0" r="1" gradientUnits="userSpaceOnUse" gradientTransform="translate(308.032 170.535) rotate(69.8178) scale(12.3135 13.4079)">
<stop stop-color="#051856"/>
<stop offset="1"/>
</radialGradient>
<radialGradient id="paint1_radial_2001_45" cx="0" cy="0" r="1" gradientUnits="userSpaceOnUse" gradientTransform="translate(299.515 172.381) rotate(69.82) scale(12.201 12.21)">
<stop stop-color="#051856"/>
<stop offset="1"/>
</radialGradient>
<radialGradient id="paint2_radial_2001_45" cx="0" cy="0" r="1" gradientUnits="userSpaceOnUse" gradientTransform="translate(275.708 168.01) rotate(69.8208) scale(11.3801 15.1288)">
<stop stop-color="#051856"/>
<stop offset="1"/>
</radialGradient>
<radialGradient id="paint3_radial_2001_45" cx="0" cy="0" r="1" gradientUnits="userSpaceOnUse" gradientTransform="translate(267.815 164.238) rotate(69.8209) scale(11.3049 15.3333)">
<stop stop-color="#051856"/>
<stop offset="1"/>
</radialGradient>
<radialGradient id="paint4_radial_2001_45" cx="0" cy="0" r="1" gradientUnits="userSpaceOnUse" gradientTransform="translate(261.596 159.229) rotate(69.8202) scale(12.3876 13.9662)">
<stop stop-color="#051856"/>
<stop offset="1"/>
</radialGradient>
<radialGradient id="paint5_radial_2001_45" cx="0" cy="0" r="1" gradientUnits="userSpaceOnUse" gradientTransform="translate(256.251 154.659) rotate(69.8206) scale(11.6521 14.562)">
<stop stop-color="#051856"/>
<stop offset="1"/>
</radialGradient>
<radialGradient id="paint6_radial_2001_45" cx="0" cy="0" r="1" gradientUnits="userSpaceOnUse" gradientTransform="translate(251.122 149.435) rotate(69.8216) scale(11.1789 17.4504)">
<stop stop-color="#051856"/>
<stop offset="1"/>
</radialGradient>
<radialGradient id="paint7_radial_2001_45" cx="0" cy="0" r="1" gradientUnits="userSpaceOnUse" gradientTransform="translate(246.347 142.912) rotate(69.8214) scale(10.319 15.6002)">
<stop stop-color="#051856"/>
<stop offset="1"/>
</radialGradient>
<radialGradient id="paint8_radial_2001_45" cx="0" cy="0" r="1" gradientUnits="userSpaceOnUse" gradientTransform="translate(242.862 135.962) rotate(69.8219) scale(9.07437 15.0797)">
<stop stop-color="#051856"/>
<stop offset="1"/>
</radialGradient>
<radialGradient id="paint9_radial_2001_45" cx="0" cy="0" r="1" gradientUnits="userSpaceOnUse" gradientTransform="translate(239.937 124.849) rotate(69.8215) scale(10.7921 16.6766)">
<stop stop-color="#051856"/>
<stop offset="1"/>
</radialGradient>
<radialGradient id="paint10_radial_2001_45" cx="0" cy="0" r="1" gradientUnits="userSpaceOnUse" gradientTransform="translate(238.17 116.991) rotate(69.821) scale(10.7171 14.9598)">
<stop stop-color="#051856"/>
<stop offset="1"/>
</radialGradient>
<radialGradient id="paint11_radial_2001_45" cx="0" cy="0" r="1" gradientUnits="userSpaceOnUse" gradientTransform="translate(238.282 108.885) rotate(69.8221) scale(9.68445 16.5779)">
<stop stop-color="#051856"/>
<stop offset="1"/>
</radialGradient>
<radialGradient id="paint12_radial_2001_45" cx="0" cy="0" r="1" gradientUnits="userSpaceOnUse" gradientTransform="translate(242.594 99.8244) rotate(69.8212) scale(11.6977 17.023)">
<stop stop-color="#051856"/>
<stop offset="1"/>
</radialGradient>
</defs>
</svg>
