<svg width="248" height="1332" viewBox="0 0 248 1332" fill="none" xmlns="http://www.w3.org/2000/svg">
<line x1="139.372" y1="2.98804" x2="147.286" y2="1329.99" stroke="#15BFFD" stroke-width="4" stroke-linecap="round"/>
<circle cx="141" cy="68" r="11.5" fill="#15BFFD" stroke="#15BFFD"/>
<path d="M0 68L5 70.8868L5 65.1132L0 68ZM4.39773 68.5L7.32955 68.5L7.32955 67.5L4.39773 67.5L4.39773 68.5ZM10.2614 68.5L13.1932 68.5L13.1932 67.5L10.2614 67.5L10.2614 68.5ZM16.125 68.5L19.0568 68.5L19.0568 67.5L16.125 67.5L16.125 68.5ZM21.9886 68.5L24.9205 68.5L24.9205 67.5L21.9886 67.5L21.9886 68.5ZM27.8523 68.5L30.7841 68.5L30.7841 67.5L27.8523 67.5L27.8523 68.5ZM33.7159 68.5L36.6477 68.5L36.6477 67.5L33.7159 67.5L33.7159 68.5ZM39.5795 68.5L42.5114 68.5L42.5114 67.5L39.5795 67.5L39.5795 68.5ZM45.4432 68.5L48.375 68.5L48.375 67.5L45.4432 67.5L45.4432 68.5ZM51.3068 68.5L54.2386 68.5L54.2386 67.5L51.3068 67.5L51.3068 68.5ZM57.1705 68.5L60.1023 68.5L60.1023 67.5L57.1705 67.5L57.1705 68.5ZM63.0341 68.5L65.9659 68.5L65.9659 67.5L63.0341 67.5L63.0341 68.5ZM68.8977 68.5L71.8296 68.5L71.8296 67.5L68.8977 67.5L68.8977 68.5ZM74.7614 68.5L77.6932 68.5L77.6932 67.5L74.7614 67.5L74.7614 68.5ZM80.625 68.5L83.5568 68.5L83.5568 67.5L80.625 67.5L80.625 68.5ZM86.4886 68.5L89.4205 68.5L89.4205 67.5L86.4886 67.5L86.4886 68.5ZM92.3523 68.5L95.2841 68.5L95.2841 67.5L92.3523 67.5L92.3523 68.5ZM98.2159 68.5L101.148 68.5L101.148 67.5L98.2159 67.5L98.2159 68.5ZM104.08 68.5L107.011 68.5L107.011 67.5L104.08 67.5L104.08 68.5ZM109.943 68.5L112.875 68.5L112.875 67.5L109.943 67.5L109.943 68.5ZM115.807 68.5L118.739 68.5L118.739 67.5L115.807 67.5L115.807 68.5ZM121.67 68.5L124.602 68.5L124.602 67.5L121.67 67.5L121.67 68.5ZM127.534 68.5L129 68.5L129 67.5L127.534 67.5L127.534 68.5Z" fill="#15BFFD"/>
<circle cx="141" cy="397" r="11.5" fill="#15BFFD" stroke="#15BFFD"/>
<path d="M248 397L243 394.113L243 399.887L248 397ZM243.544 396.5L240.574 396.5L240.574 397.5L243.544 397.5L243.544 396.5ZM237.603 396.5L234.632 396.5L234.632 397.5L237.603 397.5L237.603 396.5ZM231.662 396.5L228.691 396.5L228.691 397.5L231.662 397.5L231.662 396.5ZM225.721 396.5L222.75 396.5L222.75 397.5L225.721 397.5L225.721 396.5ZM219.779 396.5L216.809 396.5L216.809 397.5L219.779 397.5L219.779 396.5ZM213.838 396.5L210.868 396.5L210.868 397.5L213.838 397.5L213.838 396.5ZM207.897 396.5L204.926 396.5L204.926 397.5L207.897 397.5L207.897 396.5ZM201.956 396.5L198.985 396.5L198.985 397.5L201.956 397.5L201.956 396.5ZM196.015 396.5L193.044 396.5L193.044 397.5L196.015 397.5L196.015 396.5ZM190.074 396.5L187.103 396.5L187.103 397.5L190.074 397.5L190.074 396.5ZM184.132 396.5L181.162 396.5L181.162 397.5L184.132 397.5L184.132 396.5ZM178.191 396.5L175.221 396.5L175.221 397.5L178.191 397.5L178.191 396.5ZM172.25 396.5L169.279 396.5L169.279 397.5L172.25 397.5L172.25 396.5ZM166.309 396.5L163.338 396.5L163.338 397.5L166.309 397.5L166.309 396.5ZM160.368 396.5L157.397 396.5L157.397 397.5L160.368 397.5L160.368 396.5ZM154.426 396.5L151.456 396.5L151.456 397.5L154.426 397.5L154.426 396.5ZM148.485 396.5L147 396.5L147 397.5L148.485 397.5L148.485 396.5Z" fill="#15BFFD"/>
<circle cx="144" cy="1175" r="11.5" fill="#15BFFD" stroke="#15BFFD"/>
<path d="M248 1175L243 1172.11L243 1177.89L248 1175ZM243.406 1174.5L240.344 1174.5L240.344 1175.5L243.406 1175.5L243.406 1174.5ZM237.281 1174.5L234.219 1174.5L234.219 1175.5L237.281 1175.5L237.281 1174.5ZM231.156 1174.5L228.094 1174.5L228.094 1175.5L231.156 1175.5L231.156 1174.5ZM225.031 1174.5L221.969 1174.5L221.969 1175.5L225.031 1175.5L225.031 1174.5ZM218.906 1174.5L215.844 1174.5L215.844 1175.5L218.906 1175.5L218.906 1174.5ZM212.781 1174.5L209.719 1174.5L209.719 1175.5L212.781 1175.5L212.781 1174.5ZM206.656 1174.5L203.594 1174.5L203.594 1175.5L206.656 1175.5L206.656 1174.5ZM200.531 1174.5L197.469 1174.5L197.469 1175.5L200.531 1175.5L200.531 1174.5ZM194.406 1174.5L191.344 1174.5L191.344 1175.5L194.406 1175.5L194.406 1174.5ZM188.281 1174.5L185.219 1174.5L185.219 1175.5L188.281 1175.5L188.281 1174.5ZM182.156 1174.5L179.094 1174.5L179.094 1175.5L182.156 1175.5L182.156 1174.5ZM176.031 1174.5L172.969 1174.5L172.969 1175.5L176.031 1175.5L176.031 1174.5ZM169.906 1174.5L166.844 1174.5L166.844 1175.5L169.906 1175.5L169.906 1174.5ZM163.781 1174.5L160.719 1174.5L160.719 1175.5L163.781 1175.5L163.781 1174.5ZM157.656 1174.5L154.594 1174.5L154.594 1175.5L157.656 1175.5L157.656 1174.5ZM151.531 1174.5L150 1174.5L150 1175.5L151.531 1175.5L151.531 1174.5Z" fill="#15BFFD"/>
<circle cx="144" cy="796" r="11.5" fill="#15BFFD" stroke="#15BFFD"/>
<path d="M3 796L8 798.887L8 793.113L3 796ZM7.39773 796.5L10.3295 796.5L10.3295 795.5L7.39773 795.5L7.39773 796.5ZM13.2614 796.5L16.1932 796.5L16.1932 795.5L13.2614 795.5L13.2614 796.5ZM19.125 796.5L22.0568 796.5L22.0568 795.5L19.125 795.5L19.125 796.5ZM24.9886 796.5L27.9205 796.5L27.9205 795.5L24.9886 795.5L24.9886 796.5ZM30.8523 796.5L33.7841 796.5L33.7841 795.5L30.8523 795.5L30.8523 796.5ZM36.7159 796.5L39.6477 796.5L39.6477 795.5L36.7159 795.5L36.7159 796.5ZM42.5795 796.5L45.5114 796.5L45.5114 795.5L42.5795 795.5L42.5795 796.5ZM48.4432 796.5L51.375 796.5L51.375 795.5L48.4432 795.5L48.4432 796.5ZM54.3068 796.5L57.2386 796.5L57.2386 795.5L54.3068 795.5L54.3068 796.5ZM60.1705 796.5L63.1023 796.5L63.1023 795.5L60.1705 795.5L60.1705 796.5ZM66.0341 796.5L68.9659 796.5L68.9659 795.5L66.0341 795.5L66.0341 796.5ZM71.8977 796.5L74.8296 796.5L74.8296 795.5L71.8977 795.5L71.8977 796.5ZM77.7614 796.5L80.6932 796.5L80.6932 795.5L77.7614 795.5L77.7614 796.5ZM83.625 796.5L86.5568 796.5L86.5568 795.5L83.625 795.5L83.625 796.5ZM89.4886 796.5L92.4205 796.5L92.4205 795.5L89.4886 795.5L89.4886 796.5ZM95.3523 796.5L98.2841 796.5L98.2841 795.5L95.3523 795.5L95.3523 796.5ZM101.216 796.5L104.148 796.5L104.148 795.5L101.216 795.5L101.216 796.5ZM107.08 796.5L110.011 796.5L110.011 795.5L107.08 795.5L107.08 796.5ZM112.943 796.5L115.875 796.5L115.875 795.5L112.943 795.5L112.943 796.5ZM118.807 796.5L121.739 796.5L121.739 795.5L118.807 795.5L118.807 796.5ZM124.67 796.5L127.602 796.5L127.602 795.5L124.67 795.5L124.67 796.5ZM130.534 796.5L132 796.5L132 795.5L130.534 795.5L130.534 796.5Z" fill="#15BFFD"/>
</svg>
