<svg width="47" height="44" viewBox="0 0 47 44" fill="none" xmlns="http://www.w3.org/2000/svg">
<g clip-path="url(#clip0_163_75)">
<path d="M45.9104 0L25.7432 14.9011L29.4934 6.11948L45.9104 0Z" fill="#E17726"/>
<path d="M1.13678 0.0175781L17.5099 6.12056L21.0708 15.0174L1.13678 0.0175781ZM37.7948 31.6906L46.7084 31.86L43.5932 42.4277L32.7166 39.4374L37.7948 31.6906ZM9.20536 31.6906L14.2647 39.4374L3.40637 42.4279L0.310059 31.86L9.20536 31.6906Z" fill="#E27625"/>
<path d="M20.5867 12.7512L20.9509 24.4998L10.0508 24.0046L13.1513 19.3336L13.1906 19.2887L20.5867 12.7512ZM26.3007 12.6201L33.8096 19.2891L33.8486 19.3338L36.9491 24.0048L26.0513 24.4998L26.3007 12.6201ZM14.5839 31.7247L20.5356 36.3556L13.6219 39.6887L14.5839 31.7247ZM32.4175 31.724L33.3595 39.6889L26.465 36.3552L32.4175 31.724Z" fill="#E27625"/>
<path d="M26.6171 35.9189L33.6133 39.3018L27.1054 42.3902L27.173 40.349L26.6171 35.9189ZM20.381 35.9204L19.8469 40.3156L19.8908 42.3879L13.3677 39.3018L20.381 35.9204Z" fill="#D5BFB2"/>
<path d="M18.3605 26.0332L20.1887 29.87L13.9644 28.0491L18.3605 26.0332ZM28.639 26.0336L33.0559 28.0491L26.8111 29.8695L28.639 26.0336Z" fill="#233447"/>
<path d="M15.0594 31.686L14.0533 39.9433L8.66064 31.8666L15.0594 31.686ZM31.9409 31.6862L38.3399 31.8666L32.927 39.9437L31.9409 31.6862ZM37.1065 23.5381L32.4496 28.2774L28.8591 26.639L27.1401 30.2477L26.0132 24.0421L37.1065 23.5381ZM9.89109 23.5381L20.9866 24.0421L19.8595 30.2477L18.1401 26.6395L14.5687 28.2776L9.89109 23.5381Z" fill="#CC6228"/>
<path d="M9.57715 22.5652L14.8459 27.904L15.0284 33.1747L9.57715 22.5652ZM37.4278 22.5557L31.9666 33.184L32.1722 27.904L37.4278 22.5557ZM20.7288 22.8904L20.9409 24.2233L21.4648 27.5436L21.1279 37.7415L19.5353 29.5493L19.5347 29.4646L20.7288 22.8904ZM26.268 22.8719L27.4652 29.4646L27.4647 29.5493L25.868 37.7621L25.8048 35.7078L25.5557 27.4831L26.268 22.8719Z" fill="#E27525"/>
<path d="M32.6407 27.6914L32.4624 32.2707L26.9043 36.595L25.7807 35.8023L27.0401 29.3242L32.6407 27.6914ZM14.3784 27.6914L19.9595 29.3242L21.2189 35.8023L20.0953 36.595L14.537 32.2703L14.3784 27.6914Z" fill="#F5841F"/>
<path d="M12.3042 38.291L19.4152 41.6556L19.385 40.2188L19.9801 39.6972H27.018L27.6345 40.2169L27.5889 41.6526L34.6549 38.2994L31.2166 41.1367L27.0591 43.9881H19.923L15.7682 41.125L12.3042 38.291Z" fill="#C0AC9D"/>
<path d="M26.1077 35.4707L27.1131 36.18L27.7022 40.8741L26.8496 40.1552H20.1529L19.3164 40.8886L19.8863 36.1804L20.892 35.4707H26.1077Z" fill="#161616"/>
<path d="M44.5791 0.412109L47 7.66423L45.4881 14.997L46.5647 15.8262L45.1079 16.9361L46.2028 17.7806L44.753 19.0989L45.6431 19.7426L43.2809 22.4974L33.5927 19.6804L33.5088 19.6355L26.5273 13.7546L44.5791 0.412109ZM2.42087 0.412109L20.4729 13.7546L13.4912 19.6355L13.4073 19.6804L3.71906 22.4974L1.35694 19.7426L2.24627 19.0995L0.797348 17.7806L1.8901 16.937L0.411434 15.824L1.5286 14.9943L0 7.66459L2.42087 0.412109Z" fill="#763E1A"/>
<path d="M33.1187 19.0646L43.384 22.0491L46.719 32.3132H37.9204L31.8582 32.3895L36.267 23.808L33.1187 19.0646ZM13.881 19.0646L10.7322 23.808L15.1416 32.3895L9.08207 32.3132H0.299316L3.61557 22.0493L13.881 19.0646ZM29.9962 6.07031L27.1249 13.8141L26.5156 24.2751L26.2824 27.554L26.2639 35.9302H20.7357L20.7177 27.5698L20.4838 24.2724L19.8743 13.8141L17.0034 6.07031H29.9962Z" fill="#F5841F"/>
</g>
<defs>
<clipPath id="clip0_163_75">
<rect width="47" height="44" fill="white"/>
</clipPath>
</defs>
</svg>
