<svg width="47" height="44" viewBox="0 0 47 44" fill="none" xmlns="http://www.w3.org/2000/svg">
<path d="M34.1116 0C42.2164 0 47 4.85123 47 13.1555H37.0569V13.2402C32.4422 13.2402 28.7013 17.0341 28.7013 21.714C28.7013 26.3939 32.4422 30.1878 37.0569 30.1878H47V30.9504C47 39.1488 42.2164 44 34.1116 44H12.8884C4.78356 44 0 39.1488 0 30.9504V13.0496C0 4.85123 4.78356 0 12.8884 0H34.1116ZM45.2453 16.7992C46.2144 16.7992 47 17.5959 47 18.5787V24.7646C46.9887 25.7426 46.2097 26.5326 45.2453 26.5441H37.2449C34.9087 26.5759 32.8659 24.9538 32.336 22.6461C32.0706 21.2136 32.4432 19.7354 33.3537 18.6076C34.2643 17.4799 35.6198 16.818 37.0569 16.7992H45.2453ZM38.1849 19.6591H37.412C36.9375 19.6535 36.4805 19.8407 36.143 20.179C35.8055 20.5173 35.6156 20.9785 35.6156 21.4598C35.6155 22.4695 36.4165 23.2912 37.412 23.3028H38.1849C39.177 23.3028 39.9813 22.4872 39.9813 21.481C39.9813 20.4748 39.177 19.6591 38.1849 19.6591ZM24.3982 9.5118H11.1338C10.1497 9.51173 9.34878 10.3146 9.33733 11.3125C9.33733 12.3221 10.1383 13.1439 11.1338 13.1555H24.3982C25.3904 13.1555 26.1947 12.3398 26.1947 11.3337C26.1947 10.3275 25.3904 9.5118 24.3982 9.5118Z" fill="#001AFF"/>
</svg>
